<svg width="49" height="49" viewBox="0 0 49 49" fill="none" xmlns="http://www.w3.org/2000/svg">
<path d="M24.5004 4.8999C13.6764 4.8999 4.90039 13.6759 4.90039 24.4999C4.90039 33.6842 11.2248 41.3692 19.7503 43.4954C19.6594 43.2306 19.6004 42.9244 19.6004 42.5431V39.1935C18.8045 39.1935 17.4726 39.1935 17.1376 39.1935C15.7962 39.1935 14.6047 38.6161 14.0257 37.5458C13.3845 36.3543 13.2728 34.5328 11.6826 33.4194C11.2104 33.0494 11.5693 32.6251 12.1132 32.6825C13.1181 32.9664 13.9507 33.6571 14.7355 34.6795C15.5155 35.7035 15.8823 35.9348 17.3418 35.9348C18.0484 35.9348 19.1075 35.8934 20.1028 35.737C20.6388 34.3765 21.5655 33.1243 22.698 32.5326C16.171 31.8611 13.0559 28.6135 13.0559 24.2064C13.0559 22.3083 13.8646 20.4724 15.2379 18.9252C14.7865 17.3908 14.2203 14.2597 15.4102 13.0666C18.3483 13.0666 20.1236 14.9711 20.5494 15.4863C22.0121 14.9838 23.6199 14.6999 25.3091 14.6999C27.0014 14.6999 28.614 14.9838 30.0815 15.4895C30.5026 14.9774 32.2795 13.0666 35.2239 13.0666C36.4186 14.2613 35.846 17.4051 35.3898 18.9364C36.7552 20.4804 37.5591 22.3115 37.5591 24.2064C37.5591 28.6104 34.4487 31.8563 27.9313 32.531C29.7258 33.4673 31.0337 36.0959 31.0337 38.0786V42.5431C31.0337 42.7138 30.9954 42.835 30.9763 42.9818C38.6134 40.3037 44.1004 33.0526 44.1004 24.4999C44.1004 13.6759 35.3244 4.8999 24.5004 4.8999Z" fill="#1C1C1C"/>
</svg>
