<svg width="543" height="143" viewBox="0 0 543 143" fill="none" xmlns="http://www.w3.org/2000/svg">
<path d="M484.371 71.8929H480.447L538.924 142.75H542.848L484.371 71.8929Z" fill="white"/>
<path d="M441.423 71.8929H433.594L492.103 142.75H499.933L441.423 71.8929Z" fill="white"/>
<path d="M394.548 71.8929H379.02L437.65 142.754H453.177L394.548 71.8929Z" fill="white"/>
<path d="M312.644 1.03467L289.245 1.03467L347.824 71.8921H371.223L312.644 1.03467Z" fill="white"/>
<path d="M343.852 71.8929H320.453L379.032 142.75H402.431L343.852 71.8929Z" fill="white"/>
<path d="M449.247 1.03467H445.323L503.801 71.8921H507.725L449.247 1.03467Z" fill="white"/>
<path d="M406.333 1.03467L398.503 1.03467L457.012 71.8919H464.842L406.333 1.03467Z" fill="white"/>
<path d="M359.414 1.03058L343.886 1.03058L402.516 71.8917H418.043L359.414 1.03058Z" fill="white"/>
<path d="M258.072 1.03467L226.865 1.03467L285.409 71.8918H316.616L258.072 1.03467Z" fill="white"/>
<path d="M285.343 71.8929H254.136L312.681 142.75H343.887L285.343 71.8929Z" fill="white"/>
<path d="M195.684 1.03467L156.641 1.03467L215.189 71.8921H254.232L195.684 1.03467Z" fill="white"/>
<path d="M219.056 71.8929H180.013L238.562 142.75H277.604L219.056 71.8929Z" fill="white"/>
<path d="M125.571 1.03467L78.612 1.03467L136.983 71.892H183.942L125.571 1.03467Z" fill="white"/>
<path d="M152.777 71.8929H105.819L164.19 142.75H211.149L152.777 71.8929Z" fill="white"/>
<path d="M62.9993 0.981934L0.776337 0.981934L59.1572 71.8906H121.38L62.9993 0.981934Z" fill="white"/>
<path d="M98.1604 71.8929H35.9374L94.3183 142.802H156.541L98.1604 71.8929Z" fill="white"/>
</svg>
