<svg width="429" height="206" viewBox="0 0 429 206" fill="none" xmlns="http://www.w3.org/2000/svg">
<path d="M62 0H87L25 82H0L62 0Z" fill="white"/>
<path d="M120 6.10352e-05H155L93 82.0001H58L120 6.10352e-05Z" fill="#AF0000"/>
<path d="M58 82.0001H93L155 164H120L58 82.0001Z" fill="#AF0000"/>
<path d="M206 6.10352e-05L185.5 28.0001H133.829L120 6.10352e-05H206Z" fill="#AF0000"/>
<path d="M120 6.10352e-05H155L93 82.0001H58L120 6.10352e-05Z" fill="#AF0000"/>
<path d="M218 6.10352e-05H312L297.5 28.0001H197.5L218 6.10352e-05Z" fill="#AF0000"/>
<path d="M218 6.10352e-05H312L297.5 28.0001H197.5L218 6.10352e-05Z" fill="white"/>
<path d="M206 136.5V164H120L99.2073 136.5H206Z" fill="#AF0000"/>
<path d="M221 137L297.5 136.5L312 164H221V137Z" fill="white"/>
<path d="M249 67.5001H305V95.0001H249V67.5001Z" fill="white"/>
<path d="M297.5 136.5L315.5 112H348L312 164L297.5 136.5Z" fill="white"/>
<path d="M305 95.0001L333 79.5L348 112H315.5L305 95.0001Z" fill="white"/>
<path d="M312 6.10352e-05L348 51.0001H315.5L297.5 28.0001L312 6.10352e-05Z" fill="white"/>
<path d="M348 51.0001L333 79.5L305 67.5001L315.5 51.0001H348Z" fill="white"/>
<path d="M221 28.0001H249V137H221V28.0001Z" fill="white"/>
<path d="M0 82H25L87 164H62L0 82Z" fill="white"/>
<path d="M342 0H367L429 82H404L342 0Z" fill="#AF0000"/>
<path d="M404 82H429L367 164H342L404 82Z" fill="#AF0000"/>
<path d="M171.5 164H206V206L171.5 164Z" fill="#AF0000"/>
<path d="M221 164H255.5L221 206V164Z" fill="white"/>
<path d="M305 67.5L333 79.5L305 95V67.5Z" fill="white"/>
</svg>
