<svg width="505" height="272" viewBox="0 0 505 272" fill="none" xmlns="http://www.w3.org/2000/svg">
<g clip-path="url(#clip0_7_492)">
<path d="M26.35 0C19.09 9.74 13.82 22.67 13.82 40.66C13.82 58.65 19.29 71.08 26.35 81.02H19.49C13.23 72.77 6.46997 60.04 6.46997 40.66C6.56997 21.07 13.23 8.35 19.49 0H26.35Z" fill="#FCCD00"/>
<path d="M52.9899 43.05C52.8899 37.18 57.6599 32.61 63.4299 32.61C69.1999 32.61 73.8699 37.18 73.8699 42.95C73.8699 48.72 69.2999 53.39 63.4299 53.39C57.5599 53.39 52.9899 48.92 52.9899 43.05Z" fill="#FCCD00"/>
<path d="M127.15 76.45V81.42H77.4399V76.45H127.15Z" fill="#FCCD00"/>
<path d="M130.73 43.05C130.63 37.18 135.4 32.61 141.17 32.61C146.94 32.61 151.61 37.18 151.61 42.95C151.61 48.72 147.04 53.39 141.17 53.39C135.3 53.39 130.73 48.92 130.73 43.05Z" fill="#FCCD00"/>
<path d="M157.17 81.03C164.23 71.19 169.7 58.26 169.7 40.37C169.7 22.48 164.33 9.85001 157.17 0.0100098H163.93C170.29 8.16001 176.95 20.89 176.95 40.47C176.95 60.05 170.29 72.58 163.93 81.03H157.17Z" fill="#FCCD00"/>
<path d="M354.4 0C347.14 9.74 341.87 22.67 341.87 40.66C341.87 58.65 347.34 71.08 354.4 81.02H347.54C341.28 72.77 334.52 60.04 334.52 40.66C334.62 21.07 341.28 8.35 347.54 0H354.4Z" fill="#FCCD00"/>
<path d="M359.96 43.05C359.86 37.18 364.63 32.61 370.4 32.61C376.17 32.61 380.84 37.18 380.84 42.95C380.84 48.72 376.27 53.39 370.4 53.39C364.53 53.39 359.96 48.92 359.96 43.05Z" fill="#FCCD00"/>
<path d="M434.13 76.45V81.42H384.42V76.45H434.13Z" fill="#FCCD00"/>
<path d="M437.7 43.05C437.6 37.18 442.37 32.61 448.14 32.61C453.91 32.61 458.58 37.18 458.58 42.95C458.58 48.72 454.01 53.39 448.14 53.39C442.27 53.39 437.7 48.92 437.7 43.05Z" fill="#FCCD00"/>
<path d="M485.22 81.03C492.28 71.19 497.75 58.26 497.75 40.37C497.75 22.48 492.38 9.85001 485.22 0.0100098H491.98C498.34 8.16001 505 20.89 505 40.47C505 60.05 498.34 72.58 491.98 81.03H485.22Z" fill="#FCCD00"/>
<path d="M47.42 99.41C40.16 109.15 34.89 122.08 34.89 140.07C34.89 158.06 40.36 170.49 47.42 180.43H40.56C34.3 172.18 27.54 159.45 27.54 140.07C27.64 120.48 34.3 107.76 40.56 99.41H47.42Z" fill="#FCCD00"/>
<path d="M109.85 155.59C109.85 159.93 108.92 163.23 107.06 165.49C105.2 167.75 102.52 168.89 99.03 168.89C96.57 168.89 94.46 168.11 92.7 166.54C90.94 164.97 89.29 162.24 87.77 158.36C84.47 149.91 82.28 144.72 81.22 142.78C80.15 140.84 78.79 139.87 77.14 139.87C76.4 139.87 75.6 140 74.76 140.26L72.96 133.03C74.8 132.64 76.16 132.45 77.04 132.45C80.31 132.45 82.96 133.42 85 135.36C87.04 137.3 88.9 140.52 90.58 145.02L94.37 155.21C96.02 159.77 97.57 162.05 99.03 162.05C100.87 162.05 101.8 159.93 101.8 155.69V129.53C100.8 129.85 99.81 130.02 98.84 130.02C96.51 130.02 94.5 129.18 92.82 127.5C91.14 125.82 90.3 123.81 90.3 121.48C90.3 119.15 91.14 117.18 92.82 115.49C94.5 113.79 96.51 112.94 98.84 112.94C102.3 112.94 105 114.15 106.95 116.56C108.9 118.97 109.86 122.31 109.86 126.58V155.61L109.85 155.59ZM98.83 124.47C99.61 124.47 100.29 124.17 100.89 123.57C101.49 122.97 101.79 122.27 101.79 121.46C101.79 120.65 101.49 120 100.89 119.4C100.29 118.8 99.6 118.5 98.83 118.5C98.06 118.5 97.32 118.8 96.72 119.4C96.12 120 95.82 120.69 95.82 121.46C95.82 122.23 96.12 122.97 96.72 123.57C97.32 124.17 98.02 124.47 98.83 124.47Z" fill="#FCCD00"/>
<path d="M146.93 180.44C153.99 170.6 159.46 157.67 159.46 139.78C159.46 121.89 154.09 109.26 146.93 99.42H153.69C160.05 107.57 166.71 120.3 166.71 139.88C166.71 159.46 160.05 171.99 153.69 180.44H146.93Z" fill="#FCCD00"/>
<path d="M212.54 155.59C212.54 159.93 211.61 163.23 209.75 165.49C207.89 167.75 205.21 168.89 201.72 168.89C199.26 168.89 197.15 168.11 195.39 166.54C193.63 164.97 191.98 162.24 190.46 158.36C187.16 149.91 184.97 144.72 183.91 142.78C182.84 140.84 181.48 139.87 179.83 139.87C179.09 139.87 178.29 140 177.45 140.26L175.65 133.03C177.49 132.64 178.85 132.45 179.73 132.45C183 132.45 185.65 133.42 187.69 135.36C189.73 137.3 191.59 140.52 193.27 145.02L197.06 155.21C198.71 159.77 200.26 162.05 201.72 162.05C203.56 162.05 204.49 159.93 204.49 155.69V129.53C203.49 129.85 202.5 130.02 201.53 130.02C199.2 130.02 197.19 129.18 195.51 127.5C193.83 125.82 192.99 123.81 192.99 121.48C192.99 119.15 193.83 117.18 195.51 115.49C197.19 113.79 199.2 112.94 201.53 112.94C204.99 112.94 207.69 114.15 209.64 116.56C211.58 118.97 212.55 122.31 212.55 126.58V155.61L212.54 155.59ZM201.52 124.47C202.3 124.47 202.98 124.17 203.58 123.57C204.18 122.97 204.48 122.27 204.48 121.46C204.48 120.65 204.18 120 203.58 119.4C202.98 118.8 202.29 118.5 201.52 118.5C200.75 118.5 200.01 118.8 199.41 119.4C198.81 120 198.51 120.69 198.51 121.46C198.51 122.23 198.81 122.97 199.41 123.57C200.01 124.17 200.71 124.47 201.52 124.47Z" fill="#FCCD00"/>
<path d="M297.86 129.6C297.86 132.48 298.32 135.25 299.22 137.91C300.13 140.57 301.39 143.07 303 145.42C304.61 147.77 306.5 149.94 308.66 151.94C310.82 153.93 313.16 155.7 315.69 157.26C318.21 158.82 320.84 160.11 323.57 161.13C326.3 162.15 329.03 162.88 331.76 163.29L329.71 168.98C326.3 168.34 322.99 167.36 319.81 166.05C316.62 164.74 313.64 163.16 310.85 161.3C308.06 159.44 305.52 157.34 303.23 155.01C300.93 152.68 298.97 150.16 297.34 147.47C295.71 144.78 294.44 141.92 293.53 138.91C292.62 135.9 292.16 132.79 292.16 129.61C292.16 125.97 292.74 122.6 293.9 119.51C295.06 116.42 296.64 113.74 298.65 111.49C300.66 109.23 303.05 107.46 305.82 106.17C308.59 104.88 311.57 104.24 314.75 104.24C317.1 104.24 319.34 104.62 321.47 105.38C323.59 106.14 325.46 107.23 327.07 108.65C328.68 110.07 329.96 111.79 330.91 113.8C331.86 115.81 332.33 118.09 332.33 120.63C332.33 123.17 331.85 125.56 330.88 127.69C329.91 129.81 328.61 131.63 326.98 133.12C325.35 134.62 323.46 135.78 321.32 136.59C319.18 137.41 316.93 137.81 314.58 137.81C312.99 137.81 311.41 137.6 309.86 137.18C308.3 136.76 306.81 136.16 305.37 135.36C303.93 134.56 302.57 133.58 301.3 132.4C300.03 131.22 298.9 129.86 297.91 128.3C297.87 128.53 297.85 128.75 297.85 128.95V129.6H297.86ZM314.87 131.25C316.08 131.25 317.38 131.05 318.77 130.65C320.15 130.25 321.42 129.63 322.58 128.77C323.74 127.92 324.7 126.83 325.48 125.5C326.26 124.17 326.65 122.58 326.65 120.72C326.65 119.16 326.31 117.73 325.63 116.42C324.95 115.11 324.06 113.97 322.96 113.01C321.86 112.04 320.59 111.28 319.15 110.73C317.71 110.18 316.25 109.9 314.77 109.9C312.87 109.9 311.14 110.17 309.56 110.7C307.99 111.23 306.55 111.97 305.26 112.92C303.97 113.87 302.84 115 301.87 116.31C300.9 117.62 300.11 119.05 299.51 120.61C300.12 122.2 300.95 123.65 302.01 124.96C303.07 126.27 304.29 127.39 305.65 128.32C307.02 129.25 308.49 129.97 310.06 130.48C311.63 130.99 313.24 131.25 314.87 131.25Z" fill="#FCCD00"/>
<path d="M364.27 99.41C357.01 109.15 351.74 122.08 351.74 140.07C351.74 158.06 357.21 170.49 364.27 180.43H357.41C351.15 172.18 344.39 159.45 344.39 140.07C344.49 120.48 351.15 107.76 357.41 99.41H364.27Z" fill="#FCCD00"/>
<path d="M397.58 129.6C397.58 132.48 398.04 135.25 398.94 137.91C399.85 140.57 401.11 143.07 402.72 145.42C404.33 147.77 406.22 149.94 408.38 151.94C410.54 153.93 412.88 155.7 415.41 157.26C417.93 158.82 420.56 160.11 423.29 161.13C426.02 162.15 428.75 162.88 431.48 163.29L429.43 168.98C426.02 168.34 422.71 167.36 419.53 166.05C416.34 164.74 413.36 163.16 410.57 161.3C407.78 159.44 405.24 157.34 402.95 155.01C400.65 152.68 398.69 150.16 397.06 147.47C395.43 144.78 394.16 141.92 393.25 138.91C392.34 135.89 391.88 132.79 391.88 129.61C391.88 125.97 392.46 122.6 393.62 119.51C394.78 116.42 396.36 113.74 398.37 111.49C400.38 109.24 402.77 107.46 405.54 106.17C408.31 104.88 411.29 104.24 414.47 104.24C416.82 104.24 419.06 104.62 421.19 105.38C423.31 106.14 425.18 107.23 426.79 108.65C428.4 110.07 429.68 111.79 430.63 113.8C431.58 115.81 432.05 118.09 432.05 120.63C432.05 123.17 431.57 125.56 430.6 127.69C429.63 129.81 428.33 131.63 426.7 133.12C425.07 134.62 423.18 135.78 421.04 136.59C418.9 137.41 416.65 137.81 414.3 137.81C412.71 137.81 411.13 137.6 409.58 137.18C408.02 136.76 406.53 136.16 405.09 135.36C403.65 134.56 402.29 133.58 401.02 132.4C399.75 131.22 398.62 129.86 397.63 128.3C397.59 128.53 397.57 128.75 397.57 128.95V129.6H397.58ZM414.59 131.25C415.8 131.25 417.1 131.05 418.49 130.65C419.87 130.25 421.14 129.63 422.3 128.77C423.46 127.92 424.42 126.83 425.2 125.5C425.98 124.17 426.37 122.58 426.37 120.72C426.37 119.16 426.03 117.73 425.35 116.42C424.67 115.11 423.78 113.97 422.68 113.01C421.58 112.04 420.31 111.28 418.87 110.73C417.43 110.18 415.97 109.9 414.49 109.9C412.59 109.9 410.86 110.17 409.28 110.7C407.71 111.23 406.27 111.97 404.98 112.92C403.69 113.87 402.56 115 401.59 116.31C400.62 117.62 399.83 119.05 399.23 120.61C399.84 122.2 400.67 123.65 401.73 124.96C402.79 126.27 404.01 127.39 405.37 128.32C406.74 129.25 408.21 129.97 409.78 130.48C411.35 130.99 412.96 131.25 414.59 131.25Z" fill="#FCCD00"/>
<path d="M466.31 180.44C473.37 170.6 478.84 157.67 478.84 139.78C478.84 121.89 473.47 109.26 466.31 99.42H473.07C479.43 107.57 486.09 120.3 486.09 139.88C486.09 159.46 479.43 171.99 473.07 180.44H466.31Z" fill="#FCCD00"/>
<path d="M0 271.8L27.74 199.72H34.5L6.66 271.8H0Z" fill="#FCCD00"/>
<path d="M37.3 194.43L42.35 189.38C48.3 195.34 52.45 198.96 54.78 200.25C58.4 202.58 62.67 204.52 67.59 206.07C72.77 207.62 78.0701 208.4 83.5101 208.4C92.0501 208.4 99.82 206.72 106.81 203.35C113.02 200.5 118.85 195.97 124.28 189.76L129.72 194.81C122.98 202.32 116.26 207.62 109.53 210.73C101.5 214.61 93.09 216.55 84.2901 216.55C74.9701 216.55 66.43 214.74 58.66 211.11C51.15 207.49 44.03 201.92 37.3 194.41V194.43Z" fill="#FCCD00"/>
<path d="M160.85 271.8L133.81 199.72H140.57L167.61 271.8H160.85Z" fill="#FCCD00"/>
<path d="M333.22 271.8L360.96 199.72H367.72L339.88 271.8H333.22Z" fill="#FCCD00"/>
<path d="M370.52 194.43L375.57 189.38C381.52 195.34 385.67 198.96 388 200.25C391.62 202.58 395.89 204.52 400.81 206.07C405.99 207.62 411.29 208.4 416.73 208.4C425.27 208.4 433.04 206.72 440.03 203.35C446.24 200.5 452.07 195.97 457.5 189.76L462.94 194.81C456.2 202.32 449.48 207.62 442.75 210.73C434.72 214.61 426.31 216.55 417.51 216.55C408.19 216.55 399.65 214.74 391.88 211.11C384.37 207.49 377.25 201.92 370.52 194.41V194.43Z" fill="#FCCD00"/>
<path d="M494.07 271.8L467.03 199.72H473.79L500.83 271.8H494.07Z" fill="#FCCD00"/>
</g>
<defs>
<clipPath id="clip0_7_492">
<rect width="505" height="271.8" fill="white"/>
</clipPath>
</defs>
</svg>

