<svg width="80" height="80" viewBox="0 0 80 80" fill="none" xmlns="http://www.w3.org/2000/svg">
<path d="M12.9375 64.9375C6.875 58.4375 3.25 49.5 3.3125 38.8125C3.25 29.375 6.25 21.25 11.375 15.0625H0.625V64.875L12.9375 64.9375ZM69.4375 64.9375C72.0625 62.125 74.4375 58.8125 76.5625 55L64.6875 49.0625C60.5 55.8125 54.4375 62.0625 46 62.125C33.75 62.0625 28.9375 51.5625 28.9375 38.0625H74.75C74.8125 36.5625 74.8125 35.8125 74.75 35.125C75.0625 27.0625 72.9375 20.3125 69.0625 15.0625H79.375V64.875L69.4375 64.9375ZM29.6875 26.5C30.1875 20.375 35 16.3125 40.6875 16.25C46.375 16.25 50.5 20.375 50.625 26.5H29.6875Z" fill="#7F7F7F"/>
</svg>
