<svg width="80" height="80" viewBox="0 0 80 80" fill="none" xmlns="http://www.w3.org/2000/svg"><g id="SVGRepo_bgCarrier" stroke-width="0"></g><g id="SVGRepo_tracerCarrier" stroke-linecap="round" stroke-linejoin="round"></g><g id="SVGRepo_iconCarrier"><path d="m59.726 39.51-1.679-.104a23.213 23.213 0 0 0-.048-.489l1.443-1.346a.575.575 0 0 0-.191-.964l-1.845-.69a20.998 20.998 0 0 0-.144-.476l1.15-1.599a.578.578 0 0 0-.375-.909l-1.946-.316c-.075-.148-.154-.293-.234-.438l.818-1.794a.575.575 0 0 0-.546-.817l-1.974.069a15.603 15.603 0 0 0-.313-.378l.454-1.924a.576.576 0 0 0-.695-.695l-1.923.453c-.125-.105-.25-.209-.379-.313l.069-1.972a.575.575 0 0 0-.818-.546l-1.794.817a20.89 20.89 0 0 0-.437-.235l-.316-1.945a.578.578 0 0 0-.908-.376l-1.6 1.15a17.888 17.888 0 0 0-.475-.144l-.69-1.845a.576.576 0 0 0-.964-.192l-1.346 1.445c-.163-.018-.325-.035-.489-.048l-1.04-1.68a.578.578 0 0 0-.983 0l-1.04 1.68c-.162.013-.326.03-.489.048l-1.346-1.444a.58.58 0 0 0-.964.191l-.69 1.845c-.16.046-.319.095-.475.145l-1.6-1.151a.575.575 0 0 0-.909.375l-.317 1.946c-.146.076-.291.155-.437.235l-1.793-.818a.575.575 0 0 0-.817.546l.068 1.975c-.128.102-.254.206-.378.312l-1.923-.453a.58.58 0 0 0-.696.695l.454 1.924c-.106.125-.21.25-.312.377l-1.974-.068a.578.578 0 0 0-.546.817l.817 1.795c-.079.144-.158.289-.234.437l-1.945.315a.578.578 0 0 0-.376.909l1.15 1.599c-.05.157-.098.316-.144.475l-1.845.691a.578.578 0 0 0-.191.964l1.444 1.346c-.019.163-.035.325-.049.489l-1.679 1.04a.578.578 0 0 0 0 .983l1.679 1.038c.014.164.03.328.049.49l-1.444 1.346a.578.578 0 0 0 .191.964l1.845.69c.046.16.095.319.145.475l-1.151 1.6a.578.578 0 0 0 .376.907l1.945.316c.076.148.154.294.235.438l-.819 1.794a.578.578 0 0 0 .546.817l1.974-.068c.103.128.206.254.313.378l-.454 1.924a.575.575 0 0 0 .696.694l1.923-.453c.125.107.251.209.378.311l-.068 1.975a.576.576 0 0 0 .817.545l1.794-.817c.144.08.29.158.437.235l.316 1.944a.576.576 0 0 0 .909.377l1.599-1.152c.157.05.316.1.475.145l.69 1.845a.575.575 0 0 0 .964.191l1.347-1.444c.163.019.325.035.489.05l1.04 1.679a.579.579 0 0 0 .983 0l1.039-1.68c.164-.014.328-.03.49-.049l1.346 1.444a.575.575 0 0 0 .963-.191l.691-1.845c.159-.045.318-.095.475-.145l1.6 1.153a.579.579 0 0 0 .908-.378l.317-1.945c.146-.075.291-.154.436-.234l1.794.818a.576.576 0 0 0 .818-.546l-.069-1.975c.128-.1.254-.204.379-.31l1.922.452a.575.575 0 0 0 .695-.694l-.452-1.924c.105-.125.209-.25.311-.378l1.975.068a.575.575 0 0 0 .545-.817l-.817-1.794c.08-.144.157-.29.234-.438l1.945-.316a.575.575 0 0 0 .376-.908l-1.15-1.6a21.875 21.875 0 0 0 .144-.475l1.845-.69a.575.575 0 0 0 .191-.964l-1.444-1.346c.018-.162.034-.326.049-.49l1.679-1.039a.578.578 0 0 0 0-.982zM48.488 53.44a1.19 1.19 0 0 1 .499-2.326 1.19 1.19 0 0 1-.5 2.326zm-.571-3.859a1.083 1.083 0 0 0-1.285.833l-.596 2.782a14.561 14.561 0 0 1-5.36 1.3c-2.2 0-4.288-.488-6.161-1.359l-.596-2.781a1.083 1.083 0 0 0-1.285-.834l-2.456.528a14.6 14.6 0 0 1-1.27-1.496h11.951c.135 0 .225-.025.225-.148v-4.227c0-.124-.09-.147-.225-.147h-3.575v-2.62h3.78c.345 0 1.845.099 2.325 2.016.15.589.48 2.508.705 3.121.225.689 1.14 2.065 2.115 2.065h5.955a1.221 1.221 0 0 0 .216-.021c-.412.561-.866 1.092-1.354 1.587l-2.512-.539zm-16.529 3.8a1.19 1.19 0 0 1-.499-2.326 1.188 1.188 0 0 1 .498 2.327zm-4.534-18.384a1.188 1.188 0 1 1-2.171.964 1.188 1.188 0 1 1 2.171-.964zm-1.394 3.304 2.559-1.138a1.085 1.085 0 0 0 .55-1.431l-.526-1.191h2.072v9.342h-4.181a14.642 14.642 0 0 1-.475-5.582zm11.229-.908v-2.754h4.935c.255 0 1.8.295 1.8 1.45 0 .959-1.185 1.304-2.16 1.304h-4.575zM54.625 39.872c0 .365-.014.726-.041 1.085h-1.5c-.15 0-.21.1-.21.246v.689c0 1.623-.915 1.975-1.716 2.065-.763.085-1.61-.32-1.714-.787-.45-2.531-1.2-3.073-2.385-4.008 1.47-.932 3-2.31 3-4.153 0-1.991-1.365-3.245-2.295-3.86-1.305-.86-2.75-1.033-3.14-1.033H29.106a14.605 14.605 0 0 1 8.181-4.617l1.829 1.919c.414.432 1.1.45 1.531.035l2.048-1.958a14.638 14.638 0 0 1 10.011 7.13l-1.401 3.165a1.086 1.086 0 0 0 .55 1.431l2.699 1.198c.046.478.07.962.07 1.453zM39.118 23.866a1.188 1.188 0 0 1 1.68.039 1.19 1.19 0 0 1-.04 1.682 1.186 1.186 0 0 1-1.679-.04 1.191 1.191 0 0 1 .039-1.681zm13.904 11.189a1.188 1.188 0 1 1 2.171.965 1.188 1.188 0 1 1-2.171-.965z" fill="#000000"></path></g></svg>
