<svg width="478" height="175" viewBox="0 0 478 175" fill="none" xmlns="http://www.w3.org/2000/svg">
<g clip-path="url(#clip0_14046_19696)">
<path d="M-82.4538 -120.75H-126.031L-16.935 97.1939H26.6426L-82.4538 -120.75Z" fill="#7642E8"/>
<path d="M-23.9391 97.1909H-67.5167L41.5797 315.135H85.1572L-23.9391 97.1909Z" fill="#7642E8"/>
<path d="M37.7166 -120.75H-20.4014L88.63 97.193H146.748L37.7166 -120.75Z" fill="#7642E8"/>
<path d="M88.6893 97.1909H30.5712L139.603 315.134H197.721L88.6893 97.1909Z" fill="#7642E8"/>
<path d="M179.553 -120.75H106.841L215.88 97.194H288.593L179.553 -120.75Z" fill="#7642E8"/>
<path d="M219.462 97.1909H146.75L255.79 315.135H328.502L219.462 97.1909Z" fill="#7642E8"/>
<path d="M564.846 -120.75H477.391L586.101 97.1934H673.556L564.846 -120.75Z" fill="#7642E8"/>
<path d="M317.877 -120.75H230.422L339.132 97.1934H426.587L317.877 -120.75Z" fill="#7642E8"/>
<path d="M368.78 97.1909H281.325L390.035 315.135H477.49L368.78 97.1909Z" fill="#7642E8"/>
<path d="M448.314 -120.909H332.431L441.158 97.1926H557.041L448.314 -120.909Z" fill="#7642E8"/>
<path d="M513.8 97.1948H397.917L506.644 315.297H622.527L513.8 97.1948Z" fill="#7642E8"/>
</g>
<defs>
<clipPath id="clip0_14046_19696">
<rect width="854" height="174.957" fill="white" transform="matrix(-1 0 0 1 478 0)"/>
</clipPath>
</defs>
</svg>
