<svg width="1920" height="175" viewBox="0 0 1920 175" fill="none" xmlns="http://www.w3.org/2000/svg">
<g clip-path="url(#clip0_8339_2)">
<path d="M-74.7151 97.1949H-103.634L5.5561 315.15H34.4746L-74.7151 97.1949Z" fill="#FAFF0F"/>
<path d="M-31.4538 -120.75H-75.0313L34.065 97.1938H77.6426L-31.4538 -120.75Z" fill="#FAFF0F"/>
<path d="M27.0599 97.191H-16.5176L92.5787 315.135H136.156L27.0599 97.191Z" fill="#FAFF0F"/>
<path d="M88.7166 -120.75H30.5986L139.63 97.1929H197.748L88.7166 -120.75Z" fill="#FAFF0F"/>
<path d="M139.689 97.191H81.5712L190.603 315.134H248.721L139.689 97.191Z" fill="#FAFF0F"/>
<path d="M230.552 -120.75H157.84L266.879 97.1939H339.592L230.552 -120.75Z" fill="#FAFF0F"/>
<path d="M270.462 97.191H197.75L306.79 315.135H379.502L270.462 97.191Z" fill="#FAFF0F"/>
<path d="M615.845 -120.75H528.39L637.1 97.1933H724.555L615.845 -120.75Z" fill="#FAFF0F"/>
<path d="M368.878 -120.75H281.423L390.133 97.1933H477.588L368.878 -120.75Z" fill="#FAFF0F"/>
<path d="M419.78 97.191H332.325L441.035 315.135H528.49L419.78 97.191Z" fill="#FAFF0F"/>
<path d="M499.314 -120.909H383.431L492.158 97.1927H608.041L499.314 -120.909Z" fill="#FAFF0F"/>
<path d="M564.8 97.1949H448.917L557.644 315.297H673.527L564.8 97.1949Z" fill="#FAFF0F"/>
</g>
<rect width="918" height="222" transform="matrix(-1 0 0 1 1446 -47)" fill="#FAFF0F"/>
<g clip-path="url(#clip1_8339_2)">
<path d="M2002.45 -120.75H2046.03L1936.93 97.1938H1893.36L2002.45 -120.75Z" fill="#FAFF0F"/>
<path d="M1943.94 97.191H1987.52L1878.42 315.135H1834.84L1943.94 97.191Z" fill="#FAFF0F"/>
<path d="M1882.28 -120.75H1940.4L1831.37 97.1929H1773.25L1882.28 -120.75Z" fill="#FAFF0F"/>
<path d="M1831.31 97.191H1889.43L1780.4 315.134H1722.28L1831.31 97.191Z" fill="#FAFF0F"/>
<path d="M1740.45 -120.75H1813.16L1704.12 97.1939H1631.41L1740.45 -120.75Z" fill="#FAFF0F"/>
<path d="M1700.54 97.191H1773.25L1664.21 315.135H1591.5L1700.54 97.191Z" fill="#FAFF0F"/>
<path d="M1355.16 -120.75H1442.61L1333.9 97.1933H1246.45L1355.16 -120.75Z" fill="#FAFF0F"/>
<path d="M1602.12 -120.75H1689.58L1580.87 97.1933H1493.41L1602.12 -120.75Z" fill="#FAFF0F"/>
<path d="M1551.22 97.191H1638.67L1529.96 315.135H1442.51L1551.22 97.191Z" fill="#FAFF0F"/>
<path d="M1471.68 -120.909H1587.57L1478.84 97.1927H1362.96L1471.68 -120.909Z" fill="#FAFF0F"/>
<path d="M1406.2 97.1949H1522.08L1413.36 315.297H1297.47L1406.2 97.1949Z" fill="#FAFF0F"/>
</g>
<defs>
<clipPath id="clip0_8339_2">
<rect width="854" height="174.957" fill="white" transform="matrix(-1 0 0 1 529 0)"/>
</clipPath>
<clipPath id="clip1_8339_2">
<rect width="854" height="174.957" fill="white" transform="translate(1442)"/>
</clipPath>
</defs>
</svg>
