<svg width="1920" height="94" viewBox="0 0 1920 94" fill="none" xmlns="http://www.w3.org/2000/svg">
<rect x="414" width="1104" height="94" fill="#FAFF0F"/>
<g clip-path="url(#clip0_8339_2)">
<g clip-path="url(#clip1_8339_2)">
<path d="M1970.2 49.1064H1974.42L1911.55 174.922H1907.33L1970.2 49.1064Z" fill="#FAFF0F"/>
<path d="M1924.07 49.1064H1932.49L1869.59 174.922H1861.17L1924.07 49.1064Z" fill="#FAFF0F"/>
<path d="M1865.52 49.1084H1882.21L1819.18 174.93H1802.48L1865.52 49.1084Z" fill="#FAFF0F"/>
<path d="M1840.54 -76.707H1865.7L1802.72 49.1085H1777.56L1840.54 -76.707Z" fill="#FAFF0F"/>
<path d="M1806.76 49.1064H1831.92L1768.94 174.922H1743.78L1806.76 49.1064Z" fill="#FAFF0F"/>
<path d="M1961.85 -76.707H1970.26L1907.36 49.108H1898.94L1961.85 -76.707Z" fill="#FAFF0F"/>
<path d="M1903.26 -76.7148H1919.96L1856.92 49.1072H1840.23L1903.26 -76.7148Z" fill="#FAFF0F"/>
<path d="M1771.17 -76.707H1804.72L1741.78 49.108H1708.23L1771.17 -76.707Z" fill="#FAFF0F"/>
<path d="M1741.74 49.1064H1775.3L1712.35 174.921H1678.8L1741.74 49.1064Z" fill="#FAFF0F"/>
<path d="M1689.29 -76.707H1731.27L1668.32 49.1085H1626.34L1689.29 -76.707Z" fill="#FAFF0F"/>
<path d="M1666.25 49.1064H1708.23L1645.28 174.922H1603.3L1666.25 49.1064Z" fill="#FAFF0F"/>
<path d="M1466.87 -76.707H1517.35L1454.6 49.1082H1404.11L1466.87 -76.707Z" fill="#FAFF0F"/>
<path d="M1609.44 -76.707H1659.92L1597.17 49.1082H1546.68L1609.44 -76.707Z" fill="#FAFF0F"/>
<path d="M1580.05 49.1064H1630.54L1567.78 174.922H1517.3L1580.05 49.1064Z" fill="#FAFF0F"/>
<path d="M1534.14 -76.7988H1601.04L1538.27 49.1077H1471.37L1534.14 -76.7988Z" fill="#FAFF0F"/>
<path d="M1496.33 49.1084H1563.23L1500.47 175.015H1433.57L1496.33 49.1084Z" fill="#FAFF0F"/>
</g>
</g>
<g clip-path="url(#clip2_8339_2)">
<g clip-path="url(#clip3_8339_2)">
<path d="M-39.1988 49.1064H-43.4176L19.4532 174.922H23.6719L-39.1988 49.1064Z" fill="#FAFF0F"/>
<path d="M6.92764 49.1064H-1.48994L61.4145 174.922H69.832L6.92764 49.1064Z" fill="#FAFF0F"/>
<path d="M65.4841 49.1084H48.7899L111.823 174.93H128.518L65.4841 49.1084Z" fill="#FAFF0F"/>
<path d="M90.46 -76.707H65.3034L128.283 49.1085H153.439L90.46 -76.707Z" fill="#FAFF0F"/>
<path d="M124.239 49.1064H99.0827L162.062 174.922H187.219L124.239 49.1064Z" fill="#FAFF0F"/>
<path d="M-30.8419 -76.707H-39.2595L23.645 49.108H32.0625L-30.8419 -76.707Z" fill="#FAFF0F"/>
<path d="M27.74 -76.7148H11.0458L74.0793 49.1072H90.7734L27.74 -76.7148Z" fill="#FAFF0F"/>
<path d="M159.831 -76.707H126.281L189.223 49.108H222.773L159.831 -76.707Z" fill="#FAFF0F"/>
<path d="M189.257 49.1064H155.707L218.649 174.921H252.199L189.257 49.1064Z" fill="#FAFF0F"/>
<path d="M241.711 -76.707H199.736L262.683 49.1085H304.658L241.711 -76.707Z" fill="#FAFF0F"/>
<path d="M264.751 49.1064H222.775L285.722 174.922H327.697L264.751 49.1064Z" fill="#FAFF0F"/>
<path d="M464.134 -76.707H413.648L476.404 49.1082H526.891L464.134 -76.707Z" fill="#FAFF0F"/>
<path d="M321.564 -76.707H271.078L333.834 49.1082H384.32L321.564 -76.707Z" fill="#FAFF0F"/>
<path d="M350.949 49.1064H300.462L363.219 174.922H413.705L350.949 49.1064Z" fill="#FAFF0F"/>
<path d="M396.862 -76.7988H329.965L392.732 49.1077H459.629L396.862 -76.7988Z" fill="#FAFF0F"/>
<path d="M434.667 49.1084H367.77L430.536 175.015H497.434L434.667 49.1084Z" fill="#FAFF0F"/>
</g>
</g>
<defs>
<clipPath id="clip0_8339_2">
<rect width="493" height="94" fill="white" transform="translate(1517.25)"/>
</clipPath>
<clipPath id="clip1_8339_2">
<rect width="494" height="101" fill="white" transform="translate(1517 -7)"/>
</clipPath>
<clipPath id="clip2_8339_2">
<rect width="493" height="94" fill="white" transform="matrix(-1 0 0 1 414 0)"/>
</clipPath>
<clipPath id="clip3_8339_2">
<rect width="493" height="101" fill="white" transform="matrix(-1 0 0 1 414 -7)"/>
</clipPath>
</defs>
</svg>


