<svg width="478" height="175" viewBox="0 0 478 175" fill="none" xmlns="http://www.w3.org/2000/svg">
<g clip-path="url(#clip0_14046_20256)">
<path d="M560.454 -120.75H604.031L494.935 97.1938H451.357L560.454 -120.75Z" fill="#FAFF0F"/>
<path d="M501.939 97.191H545.517L436.42 315.135H392.843L501.939 97.191Z" fill="#FAFF0F"/>
<path d="M440.283 -120.75H498.401L389.37 97.1929H331.252L440.283 -120.75Z" fill="#FAFF0F"/>
<path d="M389.311 97.191H447.429L338.397 315.134H280.279L389.311 97.191Z" fill="#FAFF0F"/>
<path d="M298.447 -120.75H371.159L262.12 97.1938H189.407L298.447 -120.75Z" fill="#FAFF0F"/>
<path d="M258.538 97.191H331.25L222.21 315.135H149.498L258.538 97.191Z" fill="#FAFF0F"/>
<path d="M-86.8459 -120.75H0.609116L-108.101 97.1933H-195.556L-86.8459 -120.75Z" fill="#FAFF0F"/>
<path d="M160.123 -120.75H247.578L138.868 97.1933H51.4131L160.123 -120.75Z" fill="#FAFF0F"/>
<path d="M109.22 97.191H196.675L87.9647 315.135H0.509766L109.22 97.191Z" fill="#FAFF0F"/>
<path d="M29.6865 -120.909H145.569L36.8419 97.1927H-79.041L29.6865 -120.909Z" fill="#FAFF0F"/>
<path d="M-35.7999 97.1949H80.083L-28.6445 315.297H-144.527L-35.7999 97.1949Z" fill="#FAFF0F"/>
</g>
<defs>
<clipPath id="clip0_14046_20256">
<rect width="854" height="174.957" fill="white"/>
</clipPath>
</defs>
</svg>
