<svg width="529" height="175" viewBox="0 0 529 175" fill="none" xmlns="http://www.w3.org/2000/svg">
<g clip-path="url(#clip0_14046_20223)">
<path d="M-74.7161 97.1949H-103.635L5.55512 315.15H34.4736L-74.7161 97.1949Z" fill="#FAFF0F"/>
<path d="M-31.4533 -120.75H-75.0308L34.0655 97.1938H77.6431L-31.4533 -120.75Z" fill="#FAFF0F"/>
<path d="M27.0609 97.191H-16.5167L92.5797 315.135H136.157L27.0609 97.191Z" fill="#FAFF0F"/>
<path d="M88.7171 -120.75H30.599L139.63 97.1929H197.749L88.7171 -120.75Z" fill="#FAFF0F"/>
<path d="M139.689 97.191H81.5712L190.603 315.134H248.721L139.689 97.191Z" fill="#FAFF0F"/>
<path d="M230.553 -120.75H157.84L266.88 97.1938H339.592L230.553 -120.75Z" fill="#FAFF0F"/>
<path d="M270.462 97.191H197.75L306.79 315.135H379.502L270.462 97.191Z" fill="#FAFF0F"/>
<path d="M615.846 -120.75H528.391L637.101 97.1933H724.556L615.846 -120.75Z" fill="#FAFF0F"/>
<path d="M368.877 -120.75H281.422L390.132 97.1933H477.587L368.877 -120.75Z" fill="#FAFF0F"/>
<path d="M419.78 97.191H332.325L441.035 315.135H528.49L419.78 97.191Z" fill="#FAFF0F"/>
<path d="M499.314 -120.909H383.431L492.158 97.1927H608.041L499.314 -120.909Z" fill="#FAFF0F"/>
<path d="M564.8 97.1949H448.917L557.644 315.297H673.527L564.8 97.1949Z" fill="#FAFF0F"/>
</g>
<defs>
<clipPath id="clip0_14046_20223">
<rect width="854" height="174.957" fill="white" transform="matrix(-1 0 0 1 529 0)"/>
</clipPath>
</defs>
</svg>
