<svg width="820" height="820" viewBox="0 0 820 820" fill="none" xmlns="http://www.w3.org/2000/svg">
<path fill-rule="evenodd" clip-rule="evenodd" d="M464.544 381.166L432.696 399.34L470.631 420.986L432.669 442.606L464.545 460.796V485.834L410.655 455.143L356.769 485.833V460.794L388.662 442.618L350.647 420.967L350.657 420.965L388.615 399.317L356.769 381.168V356.014L410.642 386.755L464.544 356.014V381.166ZM394.774 420.981L410.69 430.064L426.63 420.981L410.691 411.898L394.774 420.981Z" fill="black"/>
<path fill-rule="evenodd" clip-rule="evenodd" d="M678 307.34C678 317.451 677.485 327.465 676.455 337.34H755V352.84C755 404.668 737.127 443.935 705.213 469.87C673.854 495.353 630.962 506.315 583.655 506.339C562.732 521.937 538.522 534.466 511.162 543.314C468.579 562.563 445.5 585.364 445.5 623.84H445.438L483.227 652.34H515.985L571.012 725.709L558.612 750.509H261.389L248.245 726.794L294.778 652.34H337.273L375.062 623.84C375.062 585.715 352.761 562.981 310.989 543.842C282.58 534.85 257.533 521.913 236 505.707V506.34C188.631 506.34 145.681 495.381 114.287 469.87C82.373 443.935 64.5 404.668 64.5 352.84V337.34H144.045C143.015 327.465 142.5 317.451 142.5 307.34V291.84H678V307.34ZM289.354 719.509H527.612L500.485 683.34H311.96L289.354 719.509ZM173.955 322.84C177.156 376.959 197.216 425.797 232.979 462.012C271.903 501.43 330.703 527.177 410.25 527.337C489.797 527.177 548.597 501.43 587.521 462.012C623.284 425.797 643.344 376.959 646.545 322.84H173.955ZM96.1523 368.34C99.2521 404.095 113.234 429.067 133.838 445.811C150.911 459.685 173.594 468.77 200.81 472.853C174.984 442.988 157.751 407.191 149.083 368.34H96.1523ZM671.417 368.34C662.766 407.115 645.583 442.847 619.842 472.677C646.546 468.512 668.83 459.489 685.662 445.811C706.266 429.067 720.248 404.095 723.348 368.34H671.417Z" fill="black"/>
<path fill-rule="evenodd" clip-rule="evenodd" d="M328.273 122.322L401.06 132.112L347.929 182.814L361.11 255.062L296.472 220.2L231.833 255.062L245.015 182.813L191.885 132.112L264.669 122.322L296.472 56.1245L328.273 122.322ZM281.365 145.302L246.791 149.952L272.029 174.037L265.768 208.355L296.472 191.795L327.176 208.356L320.915 174.037L346.152 149.952L311.578 145.302L296.472 113.857L281.365 145.302Z" fill="black"/>
<path fill-rule="evenodd" clip-rule="evenodd" d="M555.33 122.322L628.116 132.112L574.985 182.814L588.167 255.062L523.528 220.2L458.89 255.062L472.071 182.813L418.941 132.112L491.726 122.322L523.528 56.1245L555.33 122.322ZM508.422 145.302L473.848 149.952L499.086 174.037L492.824 208.355L523.528 191.795L554.232 208.356L547.972 174.037L573.209 149.952L538.635 145.302L523.528 113.857L508.422 145.302Z" fill="black"/>
</svg>
